<?xml version="1.0" encoding="utf-8"?>
<!-- Generator: Adobe Illustrator 27.9.0, SVG Export Plug-In . SVG Version: 6.00 Build 0)  -->
<svg version="1.1" id="圖層_1" xmlns="http://www.w3.org/2000/svg" xmlns:xlink="http://www.w3.org/1999/xlink" x="0px" y="0px"
	 viewBox="0 0 447.52 400" style="enable-background:new 0 0 447.52 400;" xml:space="preserve">
<style type="text/css">
	.st0{fill:#F05E1C;}
	.st1{fill:#FFA800;}
	.st2{fill:#FFFFFF;}
	.st3{fill:#F7C66D;}
</style>
<g>
	<g>
		<polygon class="st0" points="70.7,235.23 97.16,233.75 97.33,247.8 65.58,245.03 47.1,280.16 40.77,277.47 51.61,243.73 
			38.08,242.51 37.99,237.05 54.04,236.18 61.41,213.45 78.59,220.14 		"/>
		<polygon class="st1" points="67.49,256.65 72,250.58 100.28,269.14 88.57,281.64 		"/>
		<polygon class="st0" points="117.02,215.62 131.68,228.8 108.87,248.32 102.1,242.25 		"/>
		<polygon class="st0" points="115.29,233.97 123.52,233.36 128.3,276.44 110.25,276.69 		"/>
		<polygon class="st0" points="145.99,235.23 142.09,243.12 147.39,246.68 152.5,227.68 133.07,228.37 133.24,216.06 155.36,217.1 
			158.48,205.73 174.54,209.81 171.5,217.79 184.68,218.4 184.6,226.47 168.03,227.08 157.97,254.05 185.46,269.23 174.01,283.11 
			155.19,261.6 147.82,281.38 138.88,278.34 145.47,253.96 141.4,258.3 137.76,251.8 134.63,258.13 128.82,255.87 134.71,231.76 		
			"/>
		<polygon class="st0" points="177.23,258.3 171.06,250.67 166.99,256.31 161.96,253.44 169.76,231.76 180.78,237.05 175.66,244.16 
			185.46,249.54 		"/>
		<polygon class="st1" points="188.07,225.16 192.49,209.12 206.28,218.92 203.77,226.29 		"/>
		<polygon class="st0" points="188.07,243.99 192.49,227.94 206.28,237.74 203.77,245.12 		"/>
		<polygon class="st0" points="197.26,269.06 189.02,256.22 204.55,248.85 208.54,255.44 		"/>
		<polygon class="st1" points="229.18,271.23 231.27,265.59 253.65,266.28 250,278.6 		"/>
		<path class="st0" d="M252.69,203.13l-7.37,0.35l-0.26-3.55l-7.12-0.09l-0.52,3.99l-12.23,0.52l0.78-4.68l-11.63-0.18l0.18,5.29
			l-5.64,0.26v4.77l5.81,0.44l0.44,11.62l10.49-0.08l-0.95,4.77l-7.2,0.18l-0.17-1.04h-6.51l-1.04,16.91l11.88,0.18l-0.78,4.17
			l-8.59,0.17v5.2l7.55,0.44l-0.52,2.51l-9.19-0.69l0.26,8.68l7.46-0.18l-2.6,13.97l8.15,1.73l4.33-15.87l20.91-0.52l0.26-4.86
			l-19.35-1.48l0.78-2.69l15.7,0.95l-0.52-8.07l-13.36,0.35l0.95-3.64l7.38,0.09l-0.35,1.56l9.98,0.08l-0.96-18.82l-11.45,0.35
			l1.13-4.17h8.25l-0.87-9.63l6.5,0.43V203.13z M222.85,236.27l-3.99-0.52l-0.69-4.07l5.46,0.43L222.85,236.27z M223.72,214.41
			l0.52-3.56l12.14,0.87l-0.52,4.51L223.72,214.41z M242.46,233.49l-1.04,4.86l-6.85-0.78l1.3-4.6L242.46,233.49z"/>
		<polygon class="st0" points="274.29,205.47 284.09,217.35 260.67,228.46 256.68,223.08 		"/>
		<polygon class="st0" points="266.39,220.52 275.94,219.92 280.02,251.1 263.36,251.36 		"/>
		<polygon class="st0" points="301.27,256.65 300.66,260.3 311.24,259.34 311.24,271.66 298.93,270.79 298.06,276.17 314.37,278 
			314.37,285.1 271.08,287.89 271.34,273.31 287.57,275.04 286.61,269.84 274.38,268.88 274.29,262.64 285.13,261.69 284.27,256.65 
					"/>
		<polygon class="st0" points="299.97,248.59 285.05,254.66 281.66,250.58 291.29,238 		"/>
		<path class="st0" d="M324.43,228.8l-11.37,1.21l0.26-3.29h11.1l-2.17-20.91l-21.95,1.56v-1.3l-10.84,0.08l-2.77,20.21l12.93-0.26
			l0.61,5.21l-13.1,1.38v4.25l13.79,0.96l1.56,15.26h8.41l1.3-14.57l12.41,0.78L324.43,228.8z M311.85,220.22l-11.54-2.69v-4.94
			l12.49,1.73L311.85,220.22z"/>
		<polygon class="st1" points="323.39,257.52 314.02,245.29 317.23,241.22 331.98,243.99 		"/>
		<polygon class="st0" points="351.84,205.47 361.65,217.35 338.22,228.46 334.23,223.08 		"/>
		<polygon class="st0" points="343.95,220.52 353.49,219.92 357.57,251.1 340.91,251.36 		"/>
		<polygon class="st0" points="378.82,256.65 378.21,260.3 388.8,259.34 388.8,271.66 376.48,270.79 375.61,276.17 391.92,278 
			391.92,285.1 348.63,287.89 348.9,273.31 365.12,275.04 364.16,269.84 351.93,268.88 351.84,262.64 362.68,261.69 361.82,256.65 
					"/>
		<polygon class="st1" points="377.52,248.59 362.6,254.66 359.22,250.58 368.85,238 		"/>
		<path class="st0" d="M401.98,228.8l-11.37,1.21l0.26-3.29h11.1l-2.17-20.91l-21.95,1.56v-1.3l-10.84,0.08l-2.77,20.21l12.93-0.26
			l0.61,5.21l-13.1,1.38v4.25l13.79,0.96l1.56,15.26h8.41l1.3-14.57l12.41,0.78L401.98,228.8z M389.4,220.22l-11.54-2.69v-4.94
			l12.49,1.73L389.4,220.22z"/>
		<polygon class="st0" points="400.95,257.52 391.57,245.29 394.78,241.22 409.53,243.99 		"/>
	</g>
	<g>
		<g>
			<g>
				<path class="st0" d="M349.71,304.2H97.76v8.56c0,18.43,14.94,33.38,33.38,33.38h185.19c18.43,0,33.38-14.94,33.38-33.38V304.2z"
					/>
				<path class="st0" d="M239.12,68.64h-30.68c-61.1,0-110.63,49.53-110.63,110.63v0h251.95v0
					C349.76,118.18,300.22,68.64,239.12,68.64z M133.63,160.36c-5.21,0-9.44-4.23-9.44-9.44c0-5.21,4.23-9.44,9.44-9.44
					c5.21,0,9.44,4.23,9.44,9.44C143.07,156.14,138.84,160.36,133.63,160.36z M196.04,160.36c-5.21,0-9.44-4.23-9.44-9.44
					c0-5.21,4.23-9.44,9.44-9.44c5.21,0,9.44,4.23,9.44,9.44C205.49,156.14,201.26,160.36,196.04,160.36z"/>
			</g>
			<g>
				<g>
					<path class="st0" d="M113.85,112.33c-0.42,0.67-0.87,1.34-1.34,2.02c-0.49,0.69-0.96,1.22-1.41,1.59
						c-0.45,0.36-0.9,0.6-1.34,0.71c-0.44,0.11-0.88,0.1-1.33-0.02c-0.45-0.12-0.91-0.31-1.38-0.57c-0.41-0.23-0.91-0.5-1.5-0.83
						c-0.59-0.33-1.21-0.68-1.87-1.06c-0.66-0.38-1.32-0.75-2-1.12c-0.68-0.37-1.32-0.71-1.9-1.02c-0.18-0.09-0.2-0.26-0.08-0.48
						c0.6-1.09,0.91-1.63,1.54-2.7c0.13-0.22,0.29-0.28,0.47-0.17c0.52,0.32,1.07,0.68,1.62,1.02c0.55,0.34,1.08,0.67,1.6,0.99
						c0.18-0.6,0.36-1.23,0.55-1.88s0.37-1.31,0.54-1.97c0.17-0.66,0.34-1.31,0.5-1.95c0.16-0.64,0.3-1.26,0.42-1.84
						c0.05-0.23,0.18-0.34,0.39-0.33c1.01,0.07,1.52,0.11,2.52,0.2c0.21,0.01,0.28,0.18,0.19,0.51c-0.18,0.65-0.38,1.36-0.6,2.11
						c-0.22,0.76-0.45,1.52-0.68,2.29c-0.23,0.77-0.46,1.53-0.7,2.28c-0.23,0.75-0.45,1.45-0.65,2.09c0.45,0.27,0.68,0.4,1.13,0.67
						c0.44,0.26,0.81,0.35,1.09,0.28s0.59-0.36,0.9-0.84c0.26-0.39,0.54-0.84,0.84-1.36c0.3-0.52,0.61-1.06,0.93-1.64
						c0.32-0.57,0.64-1.17,0.96-1.77c0.32-0.61,0.62-1.2,0.9-1.78c0.02-0.02,0.03-0.04,0.04-0.06c0.06-0.08,0.12-0.13,0.19-0.13
						c0.07-0.01,0.14,0.01,0.21,0.06c0.78,0.57,1.17,0.86,1.95,1.43c0.15,0.1,0.17,0.25,0.08,0.43c-0.45,0.79-0.9,1.6-1.36,2.42
						C114.84,110.7,114.36,111.52,113.85,112.33z"/>
					<path class="st0" d="M115.19,101.71c-0.14,0.19-0.29,0.22-0.45,0.1c-0.86-0.64-1.29-0.95-2.15-1.59
						c-0.16-0.12-0.17-0.28-0.03-0.47c3.48-4.69,5.35-6.91,9.3-11.1c0.16-0.17,0.32-0.19,0.47-0.05c0.78,0.74,1.17,1.11,1.95,1.85
						c0.15,0.14,0.14,0.29-0.02,0.46C120.41,94.99,118.58,97.15,115.19,101.71z"/>
					<path class="st0" d="M130.46,91.18c-0.16,0.16-0.31,0.16-0.45,0.02c-3.25-3.27-4.87-4.91-8.12-8.18
						c-0.14-0.14-0.13-0.3,0.05-0.48c4.08-4.04,6.23-5.94,10.7-9.46c0.19-0.15,0.35-0.15,0.47,0.01c2.85,3.63,4.27,5.45,7.12,9.08
						c0.12,0.16,0.1,0.31-0.07,0.44C136.11,85.81,134.16,87.53,130.46,91.18z M136.02,82.41c-1.7-2.05-2.56-3.07-4.26-5.12
						c-2.27,1.89-3.38,2.87-5.55,4.89c1.82,1.94,2.73,2.92,4.55,4.86C132.82,85.12,133.87,84.19,136.02,82.41z"/>
					<path class="st0" d="M140.55,76.49c-0.18,0.14-0.33,0.12-0.46-0.04c-0.64-0.86-0.95-1.29-1.59-2.15
						c-0.12-0.16-0.09-0.31,0.1-0.45c4.57-3.35,6.95-4.9,11.85-7.69c0.2-0.12,0.35-0.08,0.45,0.09c0.53,0.94,0.8,1.4,1.33,2.34
						c0.1,0.18,0.05,0.32-0.15,0.43C147.32,71.74,145,73.23,140.55,76.49z"/>
					<path class="st0" d="M155.81,71.25c-0.15,0.02-0.24-0.01-0.29-0.1c-0.03-0.06-0.04-0.12-0.02-0.19
						c0.11-0.88,0.16-1.78,0.15-2.72c-0.02-0.93-0.08-1.87-0.18-2.81c-0.11-0.94-0.27-1.86-0.48-2.75c-0.21-0.9-0.46-1.75-0.74-2.55
						c-0.07-0.19,0.01-0.33,0.23-0.42c1.17-0.45,1.76-0.67,2.93-1.1c0.23-0.08,0.36-0.02,0.42,0.17c0.28,0.93,0.53,1.89,0.74,2.88
						c0.21,0.99,0.37,1.99,0.49,3c0.12,1,0.19,1.99,0.22,2.96c0.03,0.97,0.01,1.89-0.07,2.77c-0.02,0.19-0.12,0.3-0.32,0.32
						C157.66,70.92,157.04,71.02,155.81,71.25z M167.16,66.78c-0.18,0.12-0.33,0.1-0.44-0.07c-0.47-0.81-0.99-1.62-1.58-2.42
						c-0.59-0.8-1.21-1.56-1.87-2.29c-0.66-0.72-1.35-1.4-2.07-2.02c-0.72-0.62-1.44-1.15-2.17-1.59c-0.06-0.04-0.1-0.09-0.12-0.14
						c-0.05-0.11-0.01-0.21,0.13-0.31c0.96-0.72,1.45-1.08,2.44-1.78c0.18-0.13,0.35-0.14,0.53-0.02c0.75,0.52,1.52,1.12,2.31,1.8
						c0.78,0.69,1.53,1.41,2.25,2.15c0.72,0.75,1.37,1.5,1.97,2.25c0.6,0.75,1.08,1.45,1.46,2.08c0.1,0.17,0.06,0.31-0.11,0.44
						C168.77,65.63,168.23,66.01,167.16,66.78z"/>
					<path class="st0" d="M173.97,56.43c-0.06,0.02-0.14,0.01-0.26-0.02c-0.39-0.14-0.81-0.27-1.24-0.39
						c-0.43-0.12-0.87-0.22-1.31-0.29c-0.44-0.07-0.86-0.13-1.28-0.18c-0.42-0.04-0.8-0.07-1.16-0.07c-0.15,0-0.24-0.05-0.27-0.14
						c-0.01-0.04-0.01-0.11,0.02-0.21c0.35-0.88,0.53-1.32,0.89-2.19c0.07-0.17,0.21-0.27,0.41-0.28c0.38-0.03,0.8-0.04,1.26-0.02
						c0.46,0.02,0.94,0.06,1.43,0.13c0.49,0.07,0.98,0.16,1.47,0.28c0.49,0.11,0.95,0.26,1.39,0.42c0.12,0.05,0.19,0.11,0.21,0.17
						c0.02,0.06,0,0.13-0.05,0.22c-0.53,0.95-0.79,1.43-1.3,2.39C174.13,56.34,174.06,56.4,173.97,56.43z M173.67,64.5
						c-0.18,0.1-0.33,0.07-0.45-0.1c-0.63-0.82-0.95-1.23-1.6-2.05c-0.14-0.17-0.09-0.31,0.13-0.42c1.36-0.66,2.52-1.36,3.48-2.13
						s1.76-1.6,2.4-2.5s1.15-1.87,1.52-2.93c0.37-1.05,0.64-2.19,0.82-3.4c0.02-0.15,0.09-0.24,0.2-0.27
						c0.04-0.01,0.07-0.01,0.1-0.01c0.03,0,0.07,0.01,0.11,0.02c1.1,0.29,1.65,0.43,2.73,0.74c0.21,0.06,0.29,0.18,0.25,0.35
						c-0.2,1.3-0.54,2.55-1.01,3.75c-0.47,1.21-1.1,2.34-1.88,3.41c-0.78,1.07-1.73,2.07-2.85,2.99
						C176.5,62.9,175.19,63.73,173.67,64.5z"/>
					<path class="st0" d="M185.83,59.82c-0.15-0.02-0.23-0.08-0.25-0.17c-0.01-0.06-0.01-0.12,0.03-0.19
						c0.35-0.81,0.64-1.67,0.88-2.58c0.24-0.9,0.44-1.82,0.59-2.75c0.15-0.93,0.25-1.86,0.3-2.78c0.05-0.92,0.05-1.81,0-2.66
						c-0.03-0.2,0.09-0.32,0.34-0.34c1.24-0.12,1.86-0.18,3.11-0.27c0.25-0.02,0.38,0.08,0.38,0.31c0.02,0.97-0.01,1.96-0.09,2.98
						c-0.08,1.01-0.19,2.02-0.35,3.01c-0.15,0.99-0.35,1.96-0.58,2.9c-0.24,0.94-0.51,1.82-0.83,2.65c-0.07,0.18-0.2,0.25-0.39,0.23
						C187.71,60,187.08,59.93,185.83,59.82z M198,58.59c-0.21,0.08-0.35,0.02-0.41-0.19c-0.23-0.91-0.52-1.83-0.87-2.75
						s-0.75-1.83-1.19-2.71c-0.44-0.88-0.92-1.71-1.44-2.5c-0.52-0.79-1.07-1.5-1.65-2.12c-0.05-0.06-0.08-0.11-0.08-0.17
						c-0.02-0.12,0.06-0.2,0.23-0.26c1.13-0.43,1.7-0.64,2.84-1.05c0.21-0.08,0.37-0.05,0.47,0.1c0.59,0.69,1.17,1.47,1.75,2.35
						c0.58,0.88,1.11,1.78,1.59,2.7c0.49,0.92,0.91,1.82,1.29,2.71c0.37,0.89,0.65,1.69,0.84,2.41c0.05,0.18-0.02,0.3-0.21,0.37
						C199.89,57.91,199.26,58.13,198,58.59z M197.83,48.04c-0.22,0.09-0.37,0.04-0.47-0.16c-0.18-0.32-0.4-0.66-0.66-1.01
						c-0.27-0.35-0.54-0.66-0.84-0.92c-0.06-0.05-0.09-0.1-0.1-0.16c-0.01-0.11,0.05-0.19,0.2-0.25c0.35-0.15,0.52-0.23,0.87-0.38
						c0.17-0.08,0.33-0.07,0.49,0.06c0.33,0.26,0.65,0.57,0.95,0.93c0.31,0.35,0.55,0.71,0.74,1.08c0.1,0.18,0.03,0.32-0.19,0.41
						C198.42,47.79,198.22,47.88,197.83,48.04z M200.09,47.13c-0.2,0.08-0.35,0.03-0.47-0.15c-0.18-0.32-0.41-0.66-0.67-0.99
						c-0.27-0.34-0.55-0.65-0.85-0.92c-0.07-0.08-0.11-0.14-0.12-0.2c-0.01-0.1,0.06-0.17,0.21-0.23c0.34-0.13,0.5-0.2,0.84-0.33
						c0.2-0.08,0.37-0.07,0.51,0.05c0.32,0.25,0.63,0.55,0.94,0.9c0.3,0.35,0.56,0.72,0.77,1.11c0.09,0.19,0.03,0.32-0.19,0.4
						C200.66,46.92,200.47,46.99,200.09,47.13z"/>
					<path class="st0" d="M203.76,53.37c-0.23,0.02-0.35-0.08-0.36-0.28c-0.08-1.07-0.11-1.6-0.19-2.67
						c-0.01-0.2,0.09-0.31,0.33-0.33c5.66-0.39,8.52-0.42,14.25-0.15c0.24,0.01,0.35,0.12,0.34,0.32c-0.05,1.07-0.08,1.61-0.13,2.69
						c-0.01,0.2-0.13,0.3-0.36,0.29C212.06,52.97,209.28,53,203.76,53.37z"/>
					<path class="st0" d="M222.17,58.68c-0.06-0.01-0.14-0.05-0.23-0.13c-0.75-0.81-1.13-1.21-1.91-2.01
						c-0.07-0.07-0.1-0.14-0.09-0.21c0.01-0.1,0.08-0.16,0.21-0.19c0.8-0.24,1.51-0.55,2.11-0.92c0.6-0.37,1.14-0.8,1.6-1.28
						c0.46-0.48,0.86-1.02,1.17-1.6s0.59-1.2,0.82-1.87c-1.6-0.18-2.4-0.26-4-0.39c-0.24-0.02-0.35-0.13-0.33-0.33
						c0.06-0.83,0.1-1.24,0.16-2.07c0.02-0.2,0.14-0.29,0.39-0.28c1.77,0.14,2.65,0.23,4.41,0.43c0.07-0.35,0.12-0.7,0.16-1.04
						c0.04-0.35,0.07-0.72,0.11-1.08c0.02-0.21,0.16-0.3,0.41-0.27c1.15,0.14,1.73,0.22,2.88,0.39c0.25,0.03,0.35,0.16,0.32,0.37
						c-0.05,0.36-0.11,0.71-0.17,1.07s-0.13,0.7-0.21,1.03c1.38,0.2,2.08,0.31,3.46,0.55c-0.08-0.36-0.2-0.74-0.36-1.12
						c-0.16-0.39-0.36-0.77-0.59-1.13c-0.05-0.08-0.08-0.15-0.07-0.21c0.02-0.09,0.1-0.15,0.27-0.17c0.47-0.06,0.71-0.09,1.19-0.14
						c0.21-0.03,0.37,0.03,0.49,0.18c0.28,0.37,0.52,0.78,0.72,1.23c0.2,0.44,0.35,0.86,0.44,1.25c0.04,0.2-0.06,0.31-0.3,0.33
						c-0.14,0.01-0.21,0.02-0.34,0.03c0.44,0.08,0.65,0.12,1.09,0.21c0.24,0.05,0.34,0.18,0.3,0.39c-0.1,0.49-0.2,1.03-0.31,1.61
						c-0.11,0.58-0.23,1.17-0.35,1.75c-0.13,0.58-0.26,1.15-0.41,1.7s-0.3,1.03-0.45,1.46c-0.49,1.32-1.22,2.22-2.18,2.72
						c-0.96,0.5-2.21,0.62-3.79,0.38c-0.21-0.03-0.43-0.07-0.66-0.12c-0.23-0.05-0.47-0.1-0.71-0.16c-0.19-0.05-0.3-0.16-0.31-0.33
						c-0.07-0.95-0.11-1.42-0.2-2.37c-0.01-0.12,0.02-0.2,0.09-0.25c0.07-0.04,0.17-0.05,0.29-0.01c0.3,0.09,0.58,0.15,0.84,0.2
						c0.25,0.05,0.49,0.09,0.72,0.13c0.39,0.06,0.73,0.07,1.02,0.05c0.28-0.03,0.53-0.1,0.74-0.22c0.21-0.12,0.39-0.28,0.54-0.5
						c0.15-0.21,0.29-0.49,0.44-0.8c0.09-0.21,0.18-0.46,0.25-0.74c0.07-0.28,0.14-0.59,0.21-0.9c0.07-0.31,0.12-0.63,0.17-0.96
						c0.05-0.33,0.09-0.65,0.11-0.95c-1.21-0.2-1.82-0.3-3.03-0.47c-0.27,0.86-0.61,1.66-1.01,2.43c-0.4,0.77-0.87,1.47-1.42,2.12
						c-0.55,0.65-1.2,1.24-1.93,1.78c-0.73,0.54-1.58,1-2.54,1.41C222.29,58.67,222.22,58.69,222.17,58.68z M236.73,49.17
						c-0.24,0.02-0.38-0.07-0.43-0.26c-0.07-0.36-0.2-0.76-0.37-1.19c-0.17-0.43-0.38-0.83-0.62-1.2c-0.05-0.08-0.07-0.15-0.06-0.21
						c0.02-0.09,0.11-0.15,0.29-0.17c0.45-0.04,0.68-0.06,1.13-0.09c0.21-0.02,0.36,0.04,0.47,0.19c0.24,0.34,0.47,0.75,0.69,1.22
						c0.21,0.47,0.36,0.89,0.44,1.27c0.04,0.2-0.06,0.31-0.29,0.33C237.48,49.1,237.23,49.12,236.73,49.17z"/>
					<path class="st0" d="M238.59,56.08c-0.23-0.05-0.32-0.18-0.28-0.37c0.23-1.04,0.35-1.57,0.58-2.61
						c0.04-0.2,0.18-0.27,0.42-0.22c5.71,1.3,8.56,2.12,14.19,4.13c0.23,0.08,0.32,0.22,0.25,0.41c-0.36,1.01-0.55,1.52-0.91,2.53
						c-0.07,0.19-0.22,0.25-0.44,0.16C246.92,58.16,244.14,57.35,238.59,56.08z"/>
				</g>
			</g>
		</g>
		<g>
			<path class="st1" d="M342.31,137.94c0,0-7.08-19.46-40.82-44.06c-33.74-24.6-54.43-25.39-54.43-25.39s66.17-10,75.36-3.31
				C331.6,71.88,342.31,137.94,342.31,137.94z"/>
			<path class="st2" d="M332.42,122.4c0.18,0.22,0.35,0.44,0.53,0.66c-1.1-15.14-3.89-46.43-8.67-55.77
				c-0.62-0.94-1.24-1.65-1.86-2.1c-0.61-0.45-1.48-0.82-2.56-1.12c-10.35-1.7-41,5.22-55.75,8.8c0.26,0.1,0.52,0.2,0.79,0.3
				c15.37-3.7,46.55-10.65,55.61-8.52c-3.96,0.22-12.66,3.29-25.99,9.17c-5.08,2.24-10.09,4.57-14.23,6.54
				c0.17,0.09,0.34,0.18,0.5,0.28c4.07-1.93,8.96-4.2,13.91-6.39c18.13-8.01,24.77-9.53,26.95-9.11c-1.51,0.75-5.7,3.86-18.29,15.23
				c-3.21,2.9-6.42,5.84-9.19,8.41c0.13,0.09,0.26,0.18,0.4,0.27c2.67-2.47,5.73-5.28,8.81-8.06
				c15.51-14.03,18.39-15.61,18.89-15.59c0.17,0.47-0.45,3.7-9.06,22.76c-1.71,3.79-3.45,7.56-4.98,10.86
				c0.13,0.1,0.25,0.2,0.38,0.3c1.59-3.43,3.41-7.37,5.19-11.32c6.98-15.47,8.66-20.41,8.91-22.07c2.28,4.13,0.09,26.21-2.24,43.66
				c0.13,0.13,0.27,0.25,0.4,0.38c0.6-4.54,1.29-10.02,1.87-15.54c1.53-14.48,1.79-23.71,0.79-27.55
				C328.32,74.83,331.24,106.63,332.42,122.4z"/>
			<path class="st3" d="M342.31,137.94c-1.39-8.07-14.03-25.53-40.31-44.7l0,0c0,0-0.01-0.01-0.01-0.01c0,0-0.01-0.01-0.01-0.01l0,0
				c-26.29-19.16-46.77-25.86-54.88-24.71c-2.95,0.42-1.08,1.64,1.43,1.4c7.56-0.72,27.03,6.19,52.43,24.71l0,0
				c0,0,0.01,0.01,0.01,0.01c0,0,0.01,0.01,0.01,0.01l0,0c25.4,18.53,37.94,34.94,39.56,42.36
				C341.11,139.6,342.85,141.04,342.31,137.94z"/>
		</g>
	</g>
</g>
</svg>
