<?xml version="1.0" encoding="utf-8"?>
<!-- Generator: Adobe Illustrator 27.9.0, SVG Export Plug-In . SVG Version: 6.00 Build 0)  -->
<svg version="1.1" id="圖層_1" xmlns="http://www.w3.org/2000/svg" xmlns:xlink="http://www.w3.org/1999/xlink" x="0px" y="0px"
	 viewBox="0 0 15 15" style="enable-background:new 0 0 15 15;" xml:space="preserve">
<style type="text/css">
	.st0{fill:#FFA800;}
</style>
<path class="st0" d="M12.91,4.81l-2.63-0.79L8.8,1.83c-0.29-0.44-0.78-0.7-1.3-0.7s-1.01,0.26-1.3,0.7L4.72,4.02L2.09,4.81
	C1.6,4.96,1.21,5.34,1.05,5.83C0.89,6.32,0.98,6.86,1.29,7.27l1.69,2.24L2.9,12.25c-0.01,0.52,0.23,1.02,0.65,1.32
	c0.42,0.3,0.97,0.38,1.45,0.2l2.49-0.9l2.49,0.9c0.17,0.06,0.36,0.09,0.54,0.09c0.33,0,0.65-0.1,0.92-0.3
	c0.42-0.31,0.67-0.8,0.65-1.32l-0.07-2.74l1.69-2.24c0.31-0.41,0.4-0.95,0.24-1.44C13.79,5.34,13.4,4.96,12.91,4.81L12.91,4.81z"/>
<g>
</g>
<g>
</g>
<g>
</g>
<g>
</g>
<g>
</g>
<g>
</g>
</svg>
